<?xml version="1.0" encoding="UTF-8"?>
<svg id="Layer_1" xmlns="http://www.w3.org/2000/svg" version="1.1" viewBox="0 0 460.8 345.6">
  <!-- Generator: Adobe Illustrator 30.2.1, SVG Export Plug-In . SVG Version: 2.1.1 Build 1)  -->
  <defs>
    <style>
      .st0 {
        stroke: #00539b;
      }

      .st0, .st1, .st2, .st3 {
        fill: none;
        stroke-linejoin: round;
      }

      .st0, .st2 {
        stroke-width: 1.5px;
      }

      .st4 {
        font-family: ArialMT, Arial;
        font-size: 12px;
      }

      .st5 {
        stroke: #000;
        stroke-miterlimit: 10;
      }

      .st5, .st1 {
        stroke-width: .5px;
      }

      .st1, .st3 {
        stroke: #3c3c3c;
        stroke-dasharray: 2 4;
      }

      .st2 {
        stroke: #333;
        stroke-linecap: square;
      }

      .st6 {
        font-family: Arial-BoldMT, Arial;
        font-size: 17px;
        font-weight: 700;
      }

      .st7 {
        fill: #3c3c3c;
        font-family: Helvetica, Helvetica;
        font-size: 10px;
        isolation: isolate;
      }
    </style>
  </defs>
  <path id="m729b0016f1" class="st5" d="M232.3,82.7v228.99"/>
  <path id="m7ce744dd9e" class="st1" d="M430.85,254.33H18.5"/>
  <path id="m7ce744dd9e1" data-name="m7ce744dd9e" class="st1" d="M430.85,196.98H18.5"/>
  <path id="m7ce744dd9e2" data-name="m7ce744dd9e" class="st1" d="M430.85,139.62H18.5"/>
  <path id="m7ce744dd9e3" data-name="m7ce744dd9e" class="st1" d="M430.85,82.27H18.5"/>
  <path id="m7ce744dd9e4" data-name="m7ce744dd9e" class="st3" d="M431.22,311.69H18.87"/>
  <path class="st2" d="M21.25,311.69"/>
  <text class="st7" transform="translate(18.02 306.35)"><tspan x="0" y="0">Tie</tspan></text>
  <path class="st2" d="M21.25,254.33"/>
  <text class="st7" transform="translate(18.44 248.76)"><tspan x="0" y="0">+5</tspan></text>
  <path class="st2" d="M21.25,196.98"/>
  <text class="st7" transform="translate(18.44 191.41)"><tspan x="0" y="0">+10</tspan></text>
  <path class="st2" d="M21.25,139.62"/>
  <text class="st7" transform="translate(18.44 134.05)"><tspan x="0" y="0">+15</tspan></text>
  <path class="st2" d="M21.25,82.27"/>
  <text class="st7" transform="translate(18.44 76.7)"><tspan x="0" y="0">Duke +20</tspan></text>
  <path class="st0" d="M40.43,311.69h3.2l.16,22.94h7.99l.16-22.94h3.35l.16-22.94h6.39l.16-34.41h4.15l.16,22.94h2.24l.16-22.94h3.2l.16,22.94h3.83l.16-34.41h4.79l.16-22.94h3.51l.16,22.94h2.56l.16-22.94h3.67l.16,22.94h3.04l.16-34.41h3.83l.16,22.94h5.11l.16-34.41h4.79l.16,22.94h4.95l.16,22.94h8.31l.16-22.94h12.46l.16-22.94h3.51l.16,34.41h5.27l.16,22.94h4.63l.16-22.94h6.23l.16-22.94h5.11l.16-22.94h6.55l.16-34.41h5.43l.16-11.47h7.03l.16-22.94h3.99l.16-22.94h7.51l.16,22.94h1.6l.16-22.94h3.2l.16,22.94h2.56l.16-22.94h21.89l.16,22.94h6.23l.16,22.94h11.82l.16-22.94h3.2l.16,22.94h8.63l.16-22.94h2.72l.16,22.94h2.56l.16-22.94h3.51l.16,34.41h4.47l.16,22.94h11.98l.16-22.94h3.35l.16,11.47h3.67l.16-11.47h3.67l.16,22.94h2.08l.16-22.94h2.72l.16,22.94h3.35l.16,22.94h3.67l.16-11.47h3.83l.16,22.94h10.22l.16,22.94h5.91l.16-22.94h8.47l.16,22.94h8.47l.16-22.94h7.83l.16-22.94h1.76l.16,11.47h7.35l.16,34.41h3.51l.16-34.41h4.63l.16,34.41h10.06l.16-22.94h2.24l.16,22.94h5.43l.16,22.94h4.79l.16,34.41h3.04l.16-22.94h14.38l.16-11.47h3.04l.16,11.47h6.39l.16,34.41h3.35l.16-22.94h2.72l.16,11.47.16-11.47h1.12l.16,45.88h.16"/>
  <text class="st6" transform="translate(18.44 22.68)"><tspan x="0" y="0">Score Differences in the Duke vs. UConn Game</tspan></text>
  <text class="st4" transform="translate(18.64 39.55)"><tspan x="0" y="0">See how the game progressed, point-by-point, as UConn overcame a steep </tspan><tspan x="0" y="14.4">deficit to oust the Blue Devils from the tournament.</tspan></text>
  <text class="st7" transform="translate(213.96 324.82)"><tspan x="0" y="0">Halftime</tspan></text>
</svg>