<?xml version="1.0" encoding="UTF-8"?>
<svg id="Layer_1" xmlns="http://www.w3.org/2000/svg" version="1.1" viewBox="0 0 551 347.97">
  <!-- Generator: Adobe Illustrator 30.3.0, SVG Export Plug-In . SVG Version: 2.1.3 Build 182)  -->
  <defs>
    <style>
      .st0 {
        stroke-width: .25px;
      }

      .st0, .st1 {
        fill: #333;
        stroke: #777;
      }

      .st0, .st1, .st2 {
        stroke-linejoin: round;
      }

      .st3 {
        font-size: 16.23px;
      }

      .st3, .st4, .st5, .st6, .st7 {
        isolation: isolate;
      }

      .st3, .st4, .st6, .st7 {
        font-family: Helvetica, Helvetica;
      }

      .st3, .st7 {
        fill: #fff;
      }

      .st4, .st5 {
        fill: #4d4d4d;
      }

      .st4, .st5, .st6 {
        font-size: 13.52px;
      }

      .st8 {
        fill: #d1d3d4;
      }

      .st9 {
        fill: #00539b;
      }

      .st5 {
        font-family: Helvetica-Bold, Helvetica;
        font-weight: 700;
      }

      .st6, .st10 {
        fill: #000e2f;
      }

      .st2 {
        fill: none;
        stroke: #333;
        stroke-linecap: square;
        stroke-width: 1.5px;
      }

      .st7 {
        font-size: 14.87px;
      }
    </style>
  </defs>
  <path class="st2" d="M128.23,303.21"/>
  <path class="st2" d="M158.26,311.16"/>
  <rect class="st8" x="138.93" y="67.37" width="367.62" height="77.07"/>
  <path class="st2" d="M143.42,259.59"/>
  <path id="mb4c78974a2" class="st1" d="M143.42,67.37v201.94"/>
  <text class="st6" transform="translate(146.42 268.22)"><tspan x="0" y="0">0</tspan></text>
  <path class="st2" d="M216.95,259.59"/>
  <path id="mb4c78974a21" data-name="mb4c78974a2" class="st0" d="M216.95,67.37v201.94"/>
  <text class="st6" transform="translate(219.95 268.22)"><tspan x="0" y="0">3</tspan></text>
  <path class="st2" d="M290.48,259.59"/>
  <path id="mb4c78974a22" data-name="mb4c78974a2" class="st0" d="M290.48,67.37v201.94"/>
  <text class="st6" transform="translate(293.48 268.22)"><tspan x="0" y="0">6</tspan></text>
  <path class="st2" d="M364.01,259.59"/>
  <path id="mb4c78974a23" data-name="mb4c78974a2" class="st0" d="M364.01,67.37v201.94"/>
  <text class="st6" transform="translate(367.01 268.22)"><tspan x="0" y="0">9</tspan></text>
  <path class="st2" d="M437.54,259.59"/>
  <path id="mb4c78974a24" data-name="mb4c78974a2" class="st0" d="M437.54,67.37v201.94"/>
  <text class="st6" transform="translate(440.54 268.22)"><tspan x="0" y="0">12</tspan></text>
  <path class="st2" d="M511.08,259.59"/>
  <path id="mb4c78974a25" data-name="mb4c78974a2" class="st0" d="M511.08,67.37v201.94"/>
  <text class="st6" transform="translate(513.93 268.22)"><tspan x="0" y="0">15</tspan></text>
  <path class="st2" d="M138.55,239.08"/>
  <path class="st2" d="M106.95,303.13"/>
  <path class="st2" d="M106.95,278.38"/>
  <path class="st2" d="M138.55,302.06"/>
  <path class="st2" d="M138.55,267.87"/>
  <path class="st2" d="M138.55,233.68"/>
  <text class="st4" transform="translate(47.31 237.95)"><tspan x="0" y="0">Malachi Smith</tspan></text>
  <path class="st2" d="M138.55,199.49"/>
  <text class="st4" transform="translate(66.85 203.76)"><tspan x="0" y="0">Dame Sarr</tspan></text>
  <path class="st2" d="M138.55,165.3"/>
  <text class="st4" transform="translate(46.57 169.57)"><tspan x="0" y="0">Tarris Reed Jr</tspan></text>
  <path class="st2" d="M138.55,123"/>
  <text class="st5" transform="translate(33.79 127.38)"><tspan x="0" y="0">Cayden Boozer</tspan></text>
  <path class="st2" d="M138.55,88.81"/>
  <text class="st5" transform="translate(24.03 93.08)"><tspan x="0" y="0">Cameron Boozer</tspan></text>
  <path class="st10" d="M143.42,249.07v-30.77h171.58v30.77h-171.58Z"/>
  <path class="st9" d="M143.42,214.88v-30.77h196.09v30.77h-196.09Z"/>
  <path class="st10" d="M143.42,180.69v-30.77h294.13v30.77H143.42Z"/>
  <path class="st9" d="M143.42,138.39v-30.77h318.64v30.77H143.42Z"/>
  <path class="st9" d="M143.42,104.2v-30.77h343.15v30.77H143.42Z"/>
  <text class="st7" transform="translate(323.04 204.63)"><tspan x="0" y="0">8</tspan></text>
  <text class="st7" transform="translate(433.18 128.14)"><tspan x="0" y="0">13</tspan></text>
  <text class="st7" transform="translate(457.69 93.95)"><tspan x="0" y="0">14</tspan></text>
  <text class="st7" transform="translate(298.52 238.82)"><tspan x="0" y="0">7</tspan></text>
  <text class="st7" transform="translate(408.67 170.44)"><tspan x="0" y="0">12</tspan></text>
  <path class="st10" d="M211.83,60.93v-24.12h58.45v24.12h-58.45Z"/>
  <text class="st3" transform="translate(215.79 54.27)"><tspan x="0" y="0">UConn</tspan></text>
  <path class="st9" d="M143.42,60.93v-24.12h58.45v24.12h-58.45Z"/>
  <text class="st3" transform="translate(153.7 54.27)"><tspan x="0" y="0">Duke</tspan></text>
</svg>