<?xml version="1.0" encoding="UTF-8"?>
<svg id="Layer_1" xmlns="http://www.w3.org/2000/svg" version="1.1" viewBox="0 0 460.8 345.6">
  <!-- Generator: Adobe Illustrator 30.3.0, SVG Export Plug-In . SVG Version: 2.1.3 Build 182)  -->
  <defs>
    <style>
      .st0 {
        stroke: #777;
        stroke-width: .25px;
      }

      .st0, .st1 {
        fill: #333;
      }

      .st0, .st1, .st2 {
        stroke-linejoin: round;
      }

      .st3 {
        fill: #d1d3d4;
      }

      .st4 {
        fill: #00539b;
      }

      .st5 {
        font-size: 9px;
      }

      .st5, .st6 {
        font-family: Helvetica, Helvetica;
        isolation: isolate;
      }

      .st5, .st7 {
        fill: #000e2f;
      }

      .st8 {
        stroke: #000e2f;
      }

      .st8, .st9 {
        stroke-width: 3px;
      }

      .st8, .st9, .st2 {
        fill: none;
      }

      .st9 {
        stroke: #00539b;
      }

      .st1 {
        stroke: #ed1e29;
        stroke-dasharray: 6 6;
        stroke-width: .75px;
      }

      .st2 {
        stroke: #333;
        stroke-linecap: square;
        stroke-width: 1.5px;
      }

      .st6 {
        fill: #fff;
        font-size: 10.46px;
      }
    </style>
  </defs>
  <rect class="st3" x="104.48" y="74.57" width="317.61" height="193.76"/>
  <path id="m959d227a97" class="st0" d="M117.27,63.35v218.68"/>
  <path id="m959d227a971" data-name="m959d227a97" class="st0" d="M181.22,63.35v218.68"/>
  <path id="m959d227a972" data-name="m959d227a97" class="st0" d="M245.16,63.35v218.68"/>
  <path id="m959d227a973" data-name="m959d227a97" class="st0" d="M309.11,63.35v218.68"/>
  <path id="m959d227a974" data-name="m959d227a97" class="st0" d="M373.06,63.35v218.68"/>
  <path class="st2" d="M63.88,311"/>
  <path class="st2" d="M115.03,290"/>
  <path class="st2" d="M127.82,290"/>
  <text class="st5" transform="translate(105.3 291.7)"><tspan x="0" y="0">09:00</tspan></text>
  <path class="st2" d="M191.77,290"/>
  <text class="st5" transform="translate(169.34 291.7)"><tspan x="0" y="0">08:00</tspan></text>
  <path class="st2" d="M255.72,290"/>
  <text class="st5" transform="translate(233.2 291.7)"><tspan x="0" y="0">07:00</tspan></text>
  <path class="st2" d="M319.67,290"/>
  <text class="st5" transform="translate(297.15 291.7)"><tspan x="0" y="0">06:00</tspan></text>
  <path class="st2" d="M383.61,290"/>
  <text class="st5" transform="translate(361.09 291.7)"><tspan x="0" y="0">05:00</tspan></text>
  <path class="st2" d="M432.64,311"/>
  <path class="st2" d="M447.56,311"/>
  <path class="st2" d="M34.14,300.55"/>
  <path class="st2" d="M66.61,259.09"/>
  <path id="m8a8021d1a6" class="st0" d="M433.65,258.7H66.61"/>
  <text class="st5" transform="translate(66.61 254.7)"><tspan x="0" y="0">20</tspan></text>
  <path class="st2" d="M66.61,217.25"/>
  <path id="m8a8021d1a61" data-name="m8a8021d1a6" class="st0" d="M433.65,216.85H66.61"/>
  <text class="st5" transform="translate(66.61 212.85)"><tspan x="0" y="0">25</tspan></text>
  <path class="st2" d="M66.61,175.4"/>
  <path id="m8a8021d1a62" data-name="m8a8021d1a6" class="st0" d="M433.65,175.01H66.61"/>
  <text class="st5" transform="translate(66.61 171.01)"><tspan x="0" y="0">30</tspan></text>
  <path class="st2" d="M66.61,133.55"/>
  <path id="m959d227a975" data-name="m959d227a97" class="st1" d="M410.18,250.33"/>
  <path id="m959d227a976" data-name="m959d227a97" class="st1" d="M410.18,91.31"/>
  <path id="m8a8021d1a63" data-name="m8a8021d1a6" class="st0" d="M433.65,133.16H66.61"/>
  <text class="st5" transform="translate(66.61 129.16)"><tspan x="0" y="0">35</tspan></text>
  <path class="st2" d="M66.61,91.7"/>
  <path id="m8a8021d1a64" data-name="m8a8021d1a6" class="st0" d="M433.65,91.31H66.61"/>
  <text class="st5" transform="translate(66.61 87.31)"><tspan x="0" y="0">40</tspan></text>
  <path class="st2" d="M34.14,49.46"/>
  <path class="st9" d="M88.11,208.48h48.35v-16.74h42.63v-16.74h35.17v-16.74h44.76v-25.11h37.3v-8.37h47.96v-16.74h27.71v-16.74h61.66"/>
  <path class="st8" d="M88.11,267.07h16.37v-16.74h318.67v-16.74h10.5"/>
  <path class="st7" d="M130.4,241.37v-15.55h37.68v15.55h-37.68Z"/>
  <text class="st6" transform="translate(132.96 237.08)"><tspan x="0" y="0">UConn</tspan></text>
  <g>
    <path class="st4" d="M379.61,120.1v-15.55h37.68v15.55h-37.68Z"/>
    <text class="st6" transform="translate(386.24 115.81)"><tspan x="0" y="0">Duke</tspan></text>
  </g>
  <path id="m959d227a977" data-name="m959d227a97" class="st1" d="M125.12,250.33"/>
  <path id="m959d227a978" data-name="m959d227a97" class="st1" d="M125.12,208.48"/>
</svg>